<?xml version="1.0" encoding="utf-8"?>
<!-- Generator: Adobe Illustrator 19.0.0, SVG Export Plug-In . SVG Version: 6.00 Build 0)  -->
<svg version="1.1" id="Layer_1" xmlns="http://www.w3.org/2000/svg" xmlns:xlink="http://www.w3.org/1999/xlink" x="0px" y="0px"
	 viewBox="-3287 241.1 512 512" style="enable-background:new -3287 241.1 512 512;" xml:space="preserve">
<style type="text/css">
	.st0{fill:#006DF0;}
</style>
<g>
	<g>
		<path class="st0" d="M-2850,316.1c-48.4-48.4-112.6-75-181-75s-132.6,26.6-181,75s-75,112.6-75,181s26.6,132.6,75,181
			c48.4,48.4,112.6,75,181,75s132.6-26.6,181-75c48.4-48.4,75-112.6,75-181S-2801.6,364.5-2850,316.1z M-3031,740.5
			c-134.2,0-243.4-109.2-243.4-243.4s109.2-243.4,243.4-243.4s243.4,109.2,243.4,243.4S-2896.8,740.5-3031,740.5z"/>
	</g>
</g>
<g>
	<g>
		<path class="st0" d="M-3084.8,571.6c-2.4,2.5-2.4,6.5,0,8.9c1.2,1.3,2.8,1.9,4.4,1.9s3.1-0.6,4.4-1.9l79-79c2.4-2.5,2.4-6.5,0-8.9
			l-79-79c-2.5-2.4-6.5-2.4-8.9,0c-2.4,2.5-2.4,6.5,0,8.9l74.6,74.6L-3084.8,571.6z"/>
	</g>
</g>
</svg>
